<?xml version="1.0" encoding="UTF-8" standalone="no"?>
<!-- Created with Inkscape (http://www.inkscape.org/) -->

<svg
   xmlns:dc="http://purl.org/dc/elements/1.1/"
   xmlns:cc="http://creativecommons.org/ns#"
   xmlns:rdf="http://www.w3.org/1999/02/22-rdf-syntax-ns#"
   xmlns:svg="http://www.w3.org/2000/svg"
   xmlns="http://www.w3.org/2000/svg"
   xmlns:sodipodi="http://sodipodi.sourceforge.net/DTD/sodipodi-0.dtd"
   xmlns:inkscape="http://www.inkscape.org/namespaces/inkscape"
   width="99"
   height="28"
   viewBox="0 0 26.193749 7.4083335"
   version="1.1"
   id="svg8"
   inkscape:version="0.92.3 (2405546, 2018-03-11)"
   sodipodi:docname="shiju2.svg"
   inkscape:export-filename="C:\Shiju\myblog\reked\images\shiju.png"
   inkscape:export-xdpi="426.67966"
   inkscape:export-ydpi="426.67966">
  <defs
     id="defs2" />
  <sodipodi:namedview
     id="base"
     pagecolor="#ffffff"
     bordercolor="#666666"
     borderopacity="1.0"
     inkscape:pageopacity="0.0"
     inkscape:pageshadow="2"
     inkscape:zoom="8"
     inkscape:cx="90.5389"
     inkscape:cy="12.893317"
     inkscape:document-units="mm"
     inkscape:current-layer="text4520"
     showgrid="true"
     showguides="true"
     inkscape:window-width="2560"
     inkscape:window-height="1377"
     inkscape:window-x="-8"
     inkscape:window-y="-8"
     inkscape:window-maximized="1"
     units="px">
    <inkscape:grid
       type="xygrid"
       id="grid4555" />
  </sodipodi:namedview>
  <metadata
     id="metadata5">
    <rdf:RDF>
      <cc:Work
         rdf:about="">
        <dc:format>image/svg+xml</dc:format>
        <dc:type
           rdf:resource="http://purl.org/dc/dcmitype/StillImage" />
        <dc:title></dc:title>
      </cc:Work>
    </rdf:RDF>
  </metadata>
  <g
     inkscape:groupmode="layer"
     id="layer2"
     inkscape:label="Layer 2"
     style="display:inline"
     transform="translate(0,-289.59164)" />
  <g
     inkscape:label="Layer 1"
     inkscape:groupmode="layer"
     id="layer1"
     style="display:inline"
     transform="translate(0,-289.59164)">
    <g
       id="g5232"
       transform="matrix(0.13306261,0,0,0.13306261,-0.38796546,275.86216)"
       style="stroke-width:7.51525927">
      <rect
         y="109.14584"
         x="42.333332"
         height="44.979172"
         width="153.45833"
         id="rect4538"
         style="display:inline;fill:#000000;fill-opacity:1;stroke:none;stroke-width:4.71679974;stroke-miterlimit:4;stroke-dasharray:none;stroke-opacity:1"
         transform="translate(0,-4.1666667e-6)" />
      <g
         aria-label="@shijupk"
         transform="scale(0.88009421,1.136242)"
         style="font-style:normal;font-weight:normal;font-size:44.53878784px;line-height:1.25;font-family:sans-serif;letter-spacing:0px;word-spacing:0px;fill:#000000;fill-opacity:1;stroke:none;stroke-width:8.36801243"
         id="text4520">
        <path
           d="m 38.277464,101.33565 q 2.273334,2.27334 3.552085,5.46006 1.299047,3.16643 1.299047,7.10417 0,2.84167 -0.811905,5.78483 -0.811904,2.92285 -2.029762,4.85113 H 30.016331 l -0.324762,-1.58322 q -1.156964,0.77131 -2.232738,1.23816 -1.075774,0.44655 -3.105537,0.44655 -3.308513,0 -5.358573,-2.71989 -2.05006,-2.74017 -2.05006,-7.36803 0,-2.47631 0.690119,-4.3234 0.69012,-1.86738 1.88768,-3.24762 1.116369,-1.29904 2.699584,-2.02976 1.583214,-0.73071 3.146131,-0.73071 1.339644,0 2.374822,0.50744 1.035179,0.48714 1.603513,1.03518 v -1.25846 h 4.709048 v 16.56286 h 3.450597 q 0.730714,-1.60351 1.075774,-3.47089 0.365357,-1.88768 0.365357,-3.61298 0,-3.43029 -0.953988,-6.00809 -0.953989,-2.5981 -2.638692,-4.3031 -1.725298,-1.74559 -4.039227,-2.5981 -2.313929,-0.8525 -5.013513,-0.8525 -2.577798,0 -4.912025,1.01489 -2.313929,1.01488 -4.079822,2.74018 -1.806489,1.76589 -2.943156,4.42488 -1.116369,2.65899 -1.116369,5.82542 0,3.45059 1.055476,6.10958 1.075774,2.65899 2.841668,4.42488 1.765893,1.7456 4.10012,2.65899 2.334226,0.91339 4.932322,0.91339 1.725298,0 3.917442,-0.32476 2.212441,-0.30446 3.917441,-0.8119 v 3.93774 q -1.887679,0.42625 -3.75506,0.64952 -1.867382,0.22327 -4.079823,0.22327 -3.714465,0 -6.880894,-1.27875 -3.146132,-1.27875 -5.460061,-3.63327 -2.293632,-2.33423 -3.59268,-5.64274 -1.27875,-3.30851 -1.27875,-7.22595 0,-3.77536 1.339643,-6.98239 1.339643,-3.22732 3.694168,-5.62244 2.293631,-2.354524 5.480358,-3.714464 3.207025,-1.359941 6.799704,-1.359941 3.572382,0 6.657621,1.258452 3.105537,1.258453 5.338275,3.531783 z m -9.032442,17.82132 v -10.23 q -0.832203,-0.42625 -1.54262,-0.60893 -0.710417,-0.20298 -1.603512,-0.20298 -1.948572,0 -3.004049,1.705 -1.055476,1.705 -1.055476,4.66845 0,3.20703 0.872798,4.74965 0.872798,1.54262 2.882262,1.54262 1.055477,0 1.847084,-0.40595 0.791608,-0.42625 1.603513,-1.21786 z"
           style="font-style:normal;font-variant:normal;font-weight:bold;font-stretch:normal;font-size:41.5695343px;line-height:3.25;font-family:'HoloLens MDL2 Assets';-inkscape-font-specification:'HoloLens MDL2 Assets Bold';stroke-width:8.36801243"
           id="path828" />
        <path
           d="m 69.393721,120.13125 q 0,3.53179 -3.166429,5.70364 -3.166429,2.15154 -8.667085,2.15154 -3.044644,0 -5.520954,-0.56833 -2.47631,-0.56833 -3.978335,-1.25845 v -6.0081 h 0.669822 q 0.548036,0.38566 1.258453,0.8525 0.730714,0.44655 2.05006,0.97429 1.136667,0.46684 2.577798,0.8119 1.441131,0.32476 3.085239,0.32476 2.151548,0 3.186727,-0.46684 1.035179,-0.48714 1.035179,-1.42083 0,-0.83221 -0.608929,-1.19756 -0.608929,-0.38566 -2.313929,-0.73072 -0.811905,-0.18268 -2.212441,-0.38565 -1.380239,-0.22328 -2.516906,-0.52774 -3.105536,-0.81191 -4.60756,-2.51691 -1.502024,-1.7253 -1.502024,-4.2828 0,-3.28821 3.105536,-5.46006 3.125834,-2.19214 8.525002,-2.19214 2.557501,0 4.891728,0.52774 2.354524,0.50744 3.67387,1.09607 v 5.76453 h -0.629227 q -1.62381,-1.11637 -3.714465,-1.80649 -2.070358,-0.71042 -4.201608,-0.71042 -1.765893,0 -2.983751,0.48714 -1.19756,0.48715 -1.19756,1.38024 0,0.81191 0.548036,1.23816 0.548036,0.42625 2.577798,0.8525 1.11637,0.22327 2.39512,0.44654 1.299048,0.20298 2.598096,0.52774 2.882263,0.75101 4.262501,2.37482 1.380238,1.60352 1.380238,4.01893 z"
           style="fill:#ffffff;fill-opacity:1;stroke-width:8.36801243"
           id="path830" />
        <path
           d="m 97.160872,127.35721 h -7.34774 v -11.30578 q 0,-1.38024 -0.142084,-2.74018 -0.142083,-1.38024 -0.487142,-2.02976 -0.405953,-0.75101 -1.19756,-1.09607 -0.77131,-0.34506 -2.171846,-0.34506 -0.994584,0 -2.029763,0.32476 -1.014881,0.32476 -2.212441,1.03518 v 16.15691 H 74.265152 V 95.774105 h 7.307144 v 11.305775 q 1.948572,-1.52232 3.734763,-2.33423 1.806489,-0.8119 3.998632,-0.8119 3.694168,0 5.764526,2.15155 2.090655,2.15155 2.090655,6.43434 z"
           style="fill:#ffffff;fill-opacity:1;stroke-width:8.36801243"
           id="path832" />
        <path
           d="m 111.20683,127.35721 h -7.30715 v -22.79423 h 7.30715 z m 0.20297,-26.04185 h -7.7131 v -5.541255 h 7.7131 z"
           style="fill:#ffffff;fill-opacity:1;stroke-width:8.36801243"
           id="path834" />
        <path
           d="m 127.97266,127.76316 q 0,3.85655 -2.37482,6.0081 -2.37482,2.17184 -6.10958,2.17184 -1.98917,0 -3.63328,-0.18268 -1.62381,-0.16238 -2.37482,-0.34505 v -5.23679 h 0.56833 q 0.60893,0.20297 1.52232,0.34506 0.9134,0.14208 1.44114,0.14208 2.11095,0 2.88226,-1.25845 0.77131,-1.25845 0.77131,-4.14072 V 109.5156 h -4.3234 v -4.95262 h 11.63054 z m 0,-26.4478 h -7.77399 v -5.541255 h 7.77399 z"
           style="fill:#ffffff;fill-opacity:1;stroke-width:8.36801243"
           id="path836" />
        <path
           d="m 157.5463,127.35721 h -7.30714 v -2.51691 q -2.02977,1.54262 -3.71447,2.35453 -1.6847,0.7916 -4.01893,0.7916 -3.77536,0 -5.82542,-2.17184 -2.02976,-2.17185 -2.02976,-6.41405 v -14.83756 h 7.34774 v 11.30577 q 0,1.7253 0.10149,2.88227 0.12178,1.13666 0.52774,1.88767 0.38565,0.75102 1.15696,1.09608 0.79161,0.34506 2.19215,0.34506 0.93369,0 2.07035,-0.34506 1.13667,-0.34506 2.19215,-1.01488 v -16.15691 h 7.30714 z"
           style="fill:#ffffff;fill-opacity:1;stroke-width:8.36801243"
           id="path838" />
        <path
           d="m 188.25661,115.64548 q 0,2.82137 -0.8728,5.1353 -0.8525,2.31393 -2.25303,3.81595 -1.46143,1.58322 -3.30852,2.39512 -1.84708,0.81191 -3.95803,0.81191 -1.94857,0 -3.30851,-0.42625 -1.35995,-0.40596 -2.78078,-1.15697 v 9.49929 h -7.30714 v -31.15685 h 7.30714 v 2.37482 q 1.6847,-1.33964 3.4303,-2.17185 1.76589,-0.8322 4.05952,-0.8322 4.26251,0 6.61703,3.12583 2.37482,3.12584 2.37482,8.5859 z m -7.53042,0.14208 q 0,-3.32881 -1.13666,-4.83083 -1.13667,-1.50203 -3.59268,-1.50203 -1.03518,0 -2.13125,0.32477 -1.09608,0.30446 -2.09066,0.89309 v 11.46816 q 0.73072,0.28417 1.56292,0.36536 0.8322,0.0812 1.64411,0.0812 2.90256,0 4.32339,-1.68471 1.42083,-1.705 1.42083,-5.115 z"
           style="fill:#ffffff;fill-opacity:1;stroke-width:8.36801243"
           id="path840" />
        <path
           d="m 217.72876,127.35721 h -8.50471 l -6.39375,-9.92554 -1.98917,2.41542 v 7.51012 h -7.30714 V 95.774105 h 7.30714 V 114.6306 l 7.87548,-10.06762 h 8.42352 l -8.20024,9.82405 z"
           style="fill:#ffffff;fill-opacity:1;stroke-width:8.36801243"
           id="path842" />
      </g>
    </g>
    <flowRoot
       xml:space="preserve"
       id="flowRoot4530"
       style="font-style:normal;font-weight:normal;font-size:40px;line-height:1.25;font-family:sans-serif;letter-spacing:0px;word-spacing:0px;fill:#000000;fill-opacity:1;stroke:none"><flowRegion
         id="flowRegion4532"><rect
           id="rect4534"
           width="714.28571"
           height="328.57144"
           x="140"
           y="702.51971" /></flowRegion><flowPara
         id="flowPara4536" /></flowRoot>    <flowRoot
       xml:space="preserve"
       id="flowRoot4546"
       style="font-style:normal;font-weight:normal;font-size:40px;line-height:1.25;font-family:sans-serif;letter-spacing:0px;word-spacing:0px;fill:#000000;fill-opacity:1;stroke:none"><flowRegion
         id="flowRegion4548"><rect
           id="rect4550"
           width="314.28571"
           height="45.714287"
           x="305.71429"
           y="765.37683" /></flowRegion><flowPara
         id="flowPara4552" /></flowRoot>  </g>
</svg>
